<svg data-v-423bf9ae="" xmlns="http://www.w3.org/2000/svg" viewBox="0 0 509 109" class="iconLeft"><!----><!----><!----><g data-v-423bf9ae="" id="1fc98261-0578-47f9-bf4d-adda81f6c5a7" fill="#610101" transform="matrix(4.285714149475098,0,0,4.285714149475098,125.35018920898438,11.650787353515625)"><path d="M0.42 10.72L0.42 10.72L0.42 10.72Q0.42 9.95 0.50 9.38L0.50 9.38L0.50 9.38Q0.59 8.81 0.69 8.49L0.69 8.49L0.69 8.49Q0.78 8.18 0.99 7.92L0.99 7.92L0.99 7.92Q1.19 7.67 1.29 7.59L1.29 7.59L1.29 7.59Q1.40 7.50 1.64 7.36L1.64 7.36L2.11 7.08L2.11 7.08Q2.72 6.72 3.51 6.72L3.51 6.72L3.51 6.72Q4.16 6.72 5.00 6.92L5.00 6.92L5.00 6.92Q5.00 6.38 4.98 5.69L4.98 5.69L4.98 5.69Q4.97 5.00 4.97 4.82L4.97 4.82L4.97 4.82Q4.97 4.37 4.96 4.19L4.96 4.19L4.96 4.19Q4.96 4.02 4.82 3.89L4.82 3.89L4.82 3.89Q4.69 3.77 4.56 3.76L4.56 3.76L4.56 3.76Q4.42 3.75 3.99 3.74L3.99 3.74L3.96 3.28L3.96 3.28Q4.56 3.22 5.06 3.14L5.06 3.14L5.06 3.14Q5.56 3.05 5.80 3.00L5.80 3.00L5.80 3.00Q6.03 2.94 6.08 2.94L6.08 2.94L6.08 2.94Q6.31 2.94 6.31 3.16L6.31 3.16L6.31 3.16Q6.31 6.17 6.27 8.94L6.27 8.94L6.27 8.94Q6.22 11.70 6.22 12.31L6.22 12.31L6.22 12.31Q6.22 12.67 6.57 13.20L6.57 13.20L6.57 13.20Q6.93 13.73 6.93 13.75L6.93 13.75L6.93 13.75Q6.93 13.79 6.81 13.84L6.81 13.84L6.81 13.84Q6.69 13.89 6.51 13.94L6.51 13.94L6.51 13.94Q6.33 14 6.30 14.01L6.30 14.01L6.30 14.01Q5.75 14.25 5.64 14.25L5.64 14.25L5.64 14.25Q5.53 14.25 5.42 14.02L5.42 14.02L5.42 14.02Q5.31 13.79 5.20 13.51L5.20 13.51L5.20 13.51Q5.10 13.23 5.03 13.16L5.03 13.16L5.03 13.16Q3.98 14.32 3.16 14.32L3.16 14.32L3.16 14.32Q2.86 14.32 2.43 14.13L2.43 14.13L2.43 14.13Q2.00 13.94 1.53 13.56L1.53 13.56L1.53 13.56Q1.06 13.17 0.74 12.43L0.74 12.43L0.74 12.43Q0.42 11.69 0.42 10.72ZM1.65 10.19L1.65 10.19L1.65 10.19Q1.65 11.65 2.21 12.38L2.21 12.38L2.21 12.38Q2.76 13.12 3.57 13.12L3.57 13.12L3.57 13.12Q4.35 13.12 5.01 12.49L5.01 12.49L5.01 12.49Q5.01 10.04 4.99 9.01L4.99 9.01L4.99 9.01Q4.97 7.98 4.97 7.92L4.97 7.92L4.97 7.92Q4.31 7.53 3.32 7.53L3.32 7.53L3.32 7.53Q2.90 7.53 2.64 7.61L2.64 7.61L2.64 7.61Q2.38 7.69 2.13 7.95L2.13 7.95L2.13 7.95Q1.88 8.20 1.76 8.76L1.76 8.76L1.76 8.76Q1.65 9.31 1.65 10.19ZM7.80 10.67L7.80 10.67L7.80 10.67Q7.80 9.25 8.11 8.53L8.11 8.53L8.11 8.53Q8.33 8.01 9.18 7.40L9.18 7.40L9.18 7.40Q10.04 6.79 10.78 6.79L10.78 6.79L10.78 6.79Q11.42 6.79 11.91 6.94L11.91 6.94L11.91 6.94Q12.40 7.10 12.68 7.40L12.68 7.40L12.68 7.40Q12.96 7.70 13.14 7.99L13.14 7.99L13.14 7.99Q13.31 8.27 13.38 8.70L13.38 8.70L13.38 8.70Q13.44 9.13 13.46 9.38L13.46 9.38L13.46 9.38Q13.48 9.63 13.48 10.00L13.48 10.00L13.48 10.00Q13.48 10.12 13.48 10.18L13.48 10.18L13.48 10.18Q13.03 10.46 12.01 10.46L12.01 10.46L9.14 10.46L9.14 10.46Q9.14 10.91 9.16 11.15L9.16 11.15L9.16 11.15Q9.17 11.40 9.21 11.78L9.21 11.78L9.21 11.78Q9.25 12.17 9.37 12.38L9.37 12.38L9.37 12.38Q9.49 12.60 9.69 12.82L9.69 12.82L9.69 12.82Q9.88 13.05 10.21 13.15L10.21 13.15L10.21 13.15Q10.53 13.24 10.96 13.24L10.96 13.24L10.96 13.24Q12.18 13.24 13.19 12.25L13.19 12.25L13.50 12.57L13.50 12.57Q13.44 12.63 13.23 12.85L13.23 12.85L13.23 12.85Q13.02 13.06 12.95 13.13L12.95 13.13L12.95 13.13Q12.88 13.20 12.68 13.39L12.68 13.39L12.68 13.39Q12.49 13.58 12.38 13.65L12.38 13.65L12.38 13.65Q12.28 13.72 12.09 13.86L12.09 13.86L12.09 13.86Q11.90 14 11.77 14.06L11.77 14.06L11.77 14.06Q11.63 14.11 11.45 14.19L11.45 14.19L11.45 14.19Q11.26 14.27 11.07 14.29L11.07 14.29L11.07 14.29Q10.88 14.32 10.68 14.32L10.68 14.32L10.68 14.32Q9.84 14.32 9.25 13.99L9.25 13.99L9.25 13.99Q8.65 13.66 8.35 13.10L8.35 13.10L8.35 13.10Q8.05 12.54 7.92 11.95L7.92 11.95L7.92 11.95Q7.80 11.35 7.80 10.67ZM9.17 9.83L9.17 9.83L9.97 9.83L9.97 9.83Q11.83 9.83 12.18 9.58L12.18 9.58L12.18 9.58Q12.18 9.28 12.12 9.00L12.12 9.00L12.12 9.00Q12.07 8.72 11.93 8.41L11.93 8.41L11.93 8.41Q11.79 8.09 11.48 7.90L11.48 7.90L11.48 7.90Q11.17 7.70 10.72 7.70L10.72 7.70L10.72 7.70Q9.77 7.70 9.47 8.17L9.47 8.17L9.47 8.17Q9.17 8.64 9.17 9.83ZM14.34 10.75L14.34 10.75L14.34 10.75Q14.34 9.65 14.52 8.75L14.52 8.75L14.52 8.75Q14.62 8.33 15.01 8.01L15.01 8.01L15.01 8.01Q15.64 7.42 16.15 7.13L16.15 7.13L16.15 7.13Q16.66 6.85 16.91 6.80L16.91 6.80L16.91 6.80Q17.15 6.76 17.56 6.76L17.56 6.76L17.56 6.76Q18.10 6.76 18.69 6.87L18.69 6.87L18.69 6.87Q19.28 6.99 19.46 7.06L19.46 7.06L19.46 7.06Q19.42 7.48 19.42 9.16L19.42 9.16L19.00 9.16L19.00 9.16Q18.86 8.54 18.77 8.26L18.77 8.26L18.77 8.26Q18.70 8.01 18.17 7.87L18.17 7.87L18.17 7.87Q17.64 7.73 16.98 7.73L16.98 7.73L16.98 7.73Q16.16 7.73 15.87 8.26L15.87 8.26L15.87 8.26Q15.58 8.79 15.58 10.30L15.58 10.30L15.58 10.30Q15.58 10.99 15.65 11.47L15.65 11.47L15.65 11.47Q15.72 11.96 15.92 12.38L15.92 12.38L15.92 12.38Q16.11 12.80 16.51 13.01L16.51 13.01L16.51 13.01Q16.90 13.23 17.49 13.23L17.49 13.23L17.49 13.23Q17.91 13.23 18.38 12.98L18.38 12.98L18.38 12.98Q18.86 12.74 19.12 12.49L19.12 12.49L19.40 12.24L19.70 12.52L19.70 12.52Q19.64 12.59 19.37 12.89L19.37 12.89L19.37 12.89Q19.10 13.20 18.98 13.32L18.98 13.32L18.98 13.32Q18.87 13.44 18.60 13.68L18.60 13.68L18.60 13.68Q18.33 13.92 18.12 14.02L18.12 14.02L18.12 14.02Q17.92 14.13 17.63 14.22L17.63 14.22L17.63 14.22Q17.33 14.31 17.02 14.31L17.02 14.31L17.02 14.31Q16.30 14.31 15.51 13.89L15.51 13.89L15.51 13.89Q14.94 13.37 14.53 12.43L14.53 12.43L14.53 12.43Q14.34 11.59 14.34 10.75ZM20.51 10.67L20.51 10.67L20.51 10.67Q20.51 9.25 20.82 8.53L20.82 8.53L20.82 8.53Q21.04 8.01 21.90 7.40L21.90 7.40L21.90 7.40Q22.75 6.79 23.49 6.79L23.49 6.79L23.49 6.79Q24.14 6.79 24.63 6.94L24.63 6.94L24.63 6.94Q25.12 7.10 25.40 7.40L25.40 7.40L25.40 7.40Q25.68 7.70 25.85 7.99L25.85 7.99L25.85 7.99Q26.03 8.27 26.09 8.70L26.09 8.70L26.09 8.70Q26.15 9.13 26.17 9.38L26.17 9.38L26.17 9.38Q26.19 9.63 26.19 10.00L26.19 10.00L26.19 10.00Q26.19 10.12 26.19 10.18L26.19 10.18L26.19 10.18Q25.75 10.46 24.72 10.46L24.72 10.46L21.85 10.46L21.85 10.46Q21.85 10.91 21.87 11.15L21.87 11.15L21.87 11.15Q21.88 11.40 21.92 11.78L21.92 11.78L21.92 11.78Q21.97 12.17 22.09 12.38L22.09 12.38L22.09 12.38Q22.20 12.60 22.40 12.82L22.40 12.82L22.40 12.82Q22.60 13.05 22.92 13.15L22.92 13.15L22.92 13.15Q23.24 13.24 23.67 13.24L23.67 13.24L23.67 13.24Q24.89 13.24 25.90 12.25L25.90 12.25L26.21 12.57L26.21 12.57Q26.15 12.63 25.94 12.85L25.94 12.85L25.94 12.85Q25.73 13.06 25.66 13.13L25.66 13.13L25.66 13.13Q25.59 13.20 25.40 13.39L25.40 13.39L25.40 13.39Q25.20 13.58 25.09 13.65L25.09 13.65L25.09 13.65Q24.99 13.72 24.80 13.86L24.80 13.86L24.80 13.86Q24.61 14 24.48 14.06L24.48 14.06L24.48 14.06Q24.35 14.11 24.16 14.19L24.16 14.19L24.16 14.19Q23.97 14.27 23.78 14.29L23.78 14.29L23.78 14.29Q23.59 14.32 23.39 14.32L23.39 14.32L23.39 14.32Q22.55 14.32 21.96 13.99L21.96 13.99L21.96 13.99Q21.36 13.66 21.06 13.10L21.06 13.10L21.06 13.10Q20.76 12.54 20.64 11.95L20.64 11.95L20.64 11.95Q20.51 11.35 20.51 10.67ZM21.88 9.83L21.88 9.83L22.68 9.83L22.68 9.83Q24.54 9.83 24.89 9.58L24.89 9.58L24.89 9.58Q24.89 9.28 24.84 9.00L24.84 9.00L24.84 9.00Q24.78 8.72 24.64 8.41L24.64 8.41L24.64 8.41Q24.50 8.09 24.19 7.90L24.19 7.90L24.19 7.90Q23.88 7.70 23.44 7.70L23.44 7.70L23.44 7.70Q22.48 7.70 22.18 8.17L22.18 8.17L22.18 8.17Q21.88 8.64 21.88 9.83ZM27.12 7.74L27.08 7.21L27.08 7.21Q27.65 7.15 28.23 6.94L28.23 6.94L28.23 6.94Q28.81 6.73 28.97 6.73L28.97 6.73L28.97 6.73Q29.16 6.73 29.23 6.89L29.23 6.89L29.23 6.89Q29.30 7.06 29.30 7.48L29.30 7.48L29.30 7.67L29.30 7.67Q30.91 6.76 31.93 6.76L31.93 6.76L31.93 6.76Q32.75 6.76 33.10 7.26L33.10 7.26L33.10 7.26Q33.45 7.76 33.45 8.40L33.45 8.40L33.45 13.08L33.45 13.08Q33.45 13.38 33.58 13.50L33.58 13.50L33.58 13.50Q33.71 13.61 34.19 13.64L34.19 13.64L34.19 14.11L31.33 14.11L31.33 13.64L31.33 13.64Q31.86 13.59 32.00 13.47L32.00 13.47L32.00 13.47Q32.13 13.34 32.13 13.02L32.13 13.02L32.13 8.58L32.13 8.58Q32.13 8.23 31.91 8.04L31.91 8.04L31.91 8.04Q31.70 7.85 31.46 7.82L31.46 7.82L31.46 7.82Q31.23 7.78 30.90 7.78L30.90 7.78L30.90 7.78Q30.63 7.78 30.13 7.95L30.13 7.95L30.13 7.95Q29.62 8.11 29.34 8.30L29.34 8.30L29.34 8.30Q29.33 9.13 29.30 10.03L29.30 10.03L29.30 10.03Q29.27 10.93 29.26 11.49L29.26 11.49L29.26 11.49Q29.25 12.04 29.25 12.38L29.25 12.38L29.25 12.38Q29.25 13.23 29.39 13.42L29.39 13.42L29.39 13.42Q29.53 13.61 30.07 13.64L30.07 13.64L30.07 14.11L27.13 14.11L27.13 13.64L27.13 13.64Q27.43 13.59 27.55 13.55L27.55 13.55L27.55 13.55Q27.66 13.51 27.78 13.44L27.78 13.44L27.78 13.44Q27.90 13.37 27.94 13.17L27.94 13.17L27.94 13.17Q27.97 12.96 27.99 12.73L27.99 12.73L27.99 12.73Q28 12.50 28 12.01L28 12.01L28 12.01Q28 11.83 27.96 10.04L27.96 10.04L27.96 10.04Q27.92 8.26 27.90 8.20L27.90 8.20L27.90 8.20Q27.89 8.13 27.87 8.07L27.87 8.07L27.87 8.07Q27.85 8.01 27.81 7.97L27.81 7.97L27.81 7.97Q27.78 7.92 27.75 7.90L27.75 7.90L27.75 7.90Q27.73 7.87 27.68 7.84L27.68 7.84L27.68 7.84Q27.62 7.81 27.59 7.80L27.59 7.80L27.59 7.80Q27.57 7.80 27.49 7.78L27.49 7.78L27.49 7.78Q27.41 7.77 27.38 7.76L27.38 7.76L27.38 7.76Q27.36 7.76 27.26 7.75L27.26 7.75L27.26 7.75Q27.16 7.74 27.12 7.74L27.12 7.74ZM35.87 7.84L34.65 7.84L34.65 7.42L35.87 7.18L35.87 5.89L35.87 5.89Q36.68 5.66 36.90 5.57L36.90 5.57L36.90 5.57Q36.93 5.56 36.95 5.56L36.95 5.56L36.95 5.56Q37.16 5.56 37.16 5.77L37.16 5.77L37.16 5.77Q37.16 5.82 37.14 6.10L37.14 6.10L37.14 6.10Q37.13 6.38 37.13 6.62L37.13 6.62L37.13 7.06L38.91 7.06L38.86 7.84L37.13 7.84L37.13 7.84Q37.13 8.62 37.11 9.77L37.11 9.77L37.11 9.77Q37.09 10.92 37.09 11.30L37.09 11.30L37.09 11.30Q37.09 12.38 37.22 12.85L37.22 12.85L37.22 12.85Q37.35 13.33 37.74 13.33L37.74 13.33L37.74 13.33Q38.08 13.33 38.77 12.92L38.77 12.92L39.06 13.20L39.06 13.20Q37.98 14.32 37.30 14.32L37.30 14.32L37.30 14.32Q36.39 14.32 36.11 13.71L36.11 13.71L36.11 13.71Q35.83 13.09 35.83 11.48L35.83 11.48L35.83 11.48Q35.83 11.07 35.85 9.86L35.85 9.86L35.85 9.86Q35.87 8.65 35.87 7.84L35.87 7.84ZM43.47 14.11L39.55 14.11L39.55 13.64L39.55 13.64Q39.89 13.59 40.00 13.59L40.00 13.59L40.00 13.59Q40.11 13.58 40.28 13.50L40.28 13.50L40.28 13.50Q40.46 13.43 40.49 13.36L40.49 13.36L40.49 13.36Q40.52 13.30 40.57 13.09L40.57 13.09L40.57 13.09Q40.63 12.88 40.63 12.67L40.63 12.67L40.63 12.67Q40.63 12.46 40.63 12.03L40.63 12.03L40.63 11.56L40.63 11.56Q40.63 8.75 40.53 8.26L40.53 8.26L40.53 8.26Q40.43 7.77 39.86 7.73L39.86 7.73L39.86 7.73Q39.77 7.71 39.72 7.71L39.72 7.71L39.69 7.18L39.69 7.18Q40.25 7.13 40.84 6.92L40.84 6.92L40.84 6.92Q41.43 6.71 41.58 6.71L41.58 6.71L41.58 6.71Q41.76 6.71 41.83 6.87L41.83 6.87L41.83 6.87Q41.90 7.03 41.90 7.45L41.90 7.45L41.92 7.98L41.92 7.98Q43.15 6.79 43.86 6.79L43.86 6.79L43.86 6.79Q44.38 6.79 44.58 6.92L44.58 6.92L44.58 6.92Q44.77 7.04 44.77 7.38L44.77 7.38L44.77 7.38Q44.77 7.49 44.55 8.89L44.55 8.89L44.04 8.89L44.04 8.89Q43.97 7.84 43.33 7.84L43.33 7.84L43.33 7.84Q42.97 7.84 42.44 8.17L42.44 8.17L42.44 8.17Q41.92 8.50 41.92 9.04L41.92 9.04L41.92 9.04Q41.92 9.44 41.91 11.01L41.91 11.01L41.91 11.01Q41.90 12.59 41.90 12.84L41.90 12.84L41.90 12.84Q41.90 13.27 42.15 13.40L42.15 13.40L42.15 13.40Q42.41 13.54 43.33 13.66L43.33 13.66L43.33 13.66Q43.43 13.68 43.47 13.68L43.47 13.68L43.47 14.11ZM45.33 12.42L45.33 12.42L45.33 12.42Q45.33 11.93 45.43 11.55L45.43 11.55L45.43 11.55Q45.53 11.17 45.75 10.92L45.75 10.92L45.75 10.92Q45.98 10.67 46.20 10.50L46.20 10.50L46.20 10.50Q46.42 10.33 46.84 10.21L46.84 10.21L46.84 10.21Q47.25 10.09 47.55 10.03L47.55 10.03L47.55 10.03Q47.85 9.97 48.40 9.86L48.40 9.86L48.40 9.86Q48.94 9.76 49.28 9.69L49.28 9.69L49.28 9.69Q49.28 9.49 49.29 9.20L49.29 9.20L49.29 9.20Q49.29 8.90 49.29 8.85L49.29 8.85L49.29 8.85Q49.29 8.20 48.83 7.92L48.83 7.92L48.83 7.92Q48.37 7.64 47.77 7.64L47.77 7.64L47.77 7.64Q47.07 7.64 46.82 7.97L46.82 7.97L46.82 7.97Q46.56 8.30 46.27 9.38L46.27 9.38L45.70 9.32L45.70 9.32Q45.70 9.28 45.70 9.04L45.70 9.04L45.70 9.04Q45.71 8.79 45.74 8.60L45.74 8.60L45.74 8.60Q45.78 8.41 45.86 8.12L45.86 8.12L45.86 8.12Q45.93 7.83 46.12 7.61L46.12 7.61L46.12 7.61Q46.31 7.39 46.59 7.18L46.59 7.18L46.59 7.18Q46.87 6.97 47.33 6.86L47.33 6.86L47.33 6.86Q47.80 6.75 48.40 6.75L48.40 6.75L48.40 6.75Q49.01 6.75 49.45 6.89L49.45 6.89L49.45 6.89Q49.88 7.03 50.10 7.20L50.10 7.20L50.10 7.20Q50.32 7.38 50.44 7.68L50.44 7.68L50.44 7.68Q50.55 7.98 50.57 8.16L50.57 8.16L50.57 8.16Q50.58 8.34 50.58 8.62L50.58 8.62L50.58 8.62Q50.58 9.69 50.55 10.90L50.55 10.90L50.55 10.90Q50.53 12.11 50.53 12.32L50.53 12.32L50.53 12.32Q50.53 12.67 50.84 13.17L50.84 13.17L50.84 13.17Q51.16 13.66 51.16 13.75L51.16 13.75L51.16 13.75Q51.16 13.82 51.03 13.86L51.03 13.86L51.03 13.86Q50.05 14.18 49.95 14.18L49.95 14.18L49.95 14.18Q49.81 14.18 49.69 13.98L49.69 13.98L49.69 13.98Q49.57 13.78 49.48 13.48L49.48 13.48L49.48 13.48Q49.38 13.19 49.36 13.17L49.36 13.17L49.36 13.17Q49.15 13.31 48.85 13.52L48.85 13.52L48.85 13.52Q48.54 13.73 48.42 13.81L48.42 13.81L48.42 13.81Q48.30 13.89 48.08 14L48.08 14L48.08 14Q47.87 14.11 47.70 14.15L47.70 14.15L47.70 14.15Q47.53 14.20 47.28 14.22L47.28 14.22L47.28 14.22Q47.03 14.25 46.70 14.25L46.70 14.25L46.70 14.25Q45.98 14.25 45.65 13.72L45.65 13.72L45.65 13.72Q45.33 13.19 45.33 12.42ZM46.59 12.28L46.59 12.28L46.59 12.28Q46.59 13.31 47.53 13.31L47.53 13.31L47.53 13.31Q48.36 13.31 49.20 12.61L49.20 12.61L49.20 12.61Q49.29 12.53 49.29 11.42L49.29 11.42L49.29 11.42Q49.29 10.65 49.28 10.23L49.28 10.23L49.28 10.23Q49.03 10.32 48.64 10.44L48.64 10.44L48.64 10.44Q48.26 10.57 48.10 10.63L48.10 10.63L48.10 10.63Q47.94 10.68 47.67 10.77L47.67 10.77L47.67 10.77Q47.40 10.86 47.31 10.92L47.31 10.92L47.31 10.92Q47.22 10.98 47.06 11.06L47.06 11.06L47.06 11.06Q46.90 11.14 46.86 11.22L46.86 11.22L46.86 11.22Q46.82 11.30 46.73 11.40L46.73 11.40L46.73 11.40Q46.65 11.51 46.63 11.64L46.63 11.64L46.63 11.64Q46.62 11.77 46.61 11.92L46.61 11.92L46.61 11.92Q46.59 12.07 46.59 12.28ZM55.13 14.11L51.83 14.11L51.83 13.64L51.83 13.64Q51.94 13.62 52.12 13.59L52.12 13.59L52.12 13.59Q52.30 13.55 52.36 13.54L52.36 13.54L52.36 13.54Q52.42 13.54 52.53 13.50L52.53 13.50L52.53 13.50Q52.65 13.45 52.68 13.43L52.68 13.43L52.68 13.43Q52.71 13.40 52.78 13.31L52.78 13.31L52.78 13.31Q52.85 13.23 52.86 13.15L52.86 13.15L52.86 13.15Q52.86 13.06 52.89 12.91L52.89 12.91L52.89 12.91Q52.92 12.77 52.92 12.60L52.92 12.60L52.92 12.60Q52.92 12.43 52.92 12.18L52.92 12.18L52.92 9.59L52.92 9.59Q52.92 8.15 52.88 4.98L52.88 4.98L52.86 4.31L52.86 4.31Q52.85 3.96 52.70 3.86L52.70 3.86L52.70 3.86Q52.54 3.77 52.08 3.77L52.08 3.77L51.90 3.77L51.87 3.30L51.87 3.30Q52.47 3.23 52.96 3.14L52.96 3.14L52.96 3.14Q53.45 3.05 53.68 3.00L53.68 3.00L53.68 3.00Q53.91 2.94 53.97 2.94L53.97 2.94L53.97 2.94Q54.21 2.94 54.21 3.15L54.21 3.15L54.21 3.15Q54.24 4.30 54.24 6.03L54.24 6.03L54.24 6.03Q54.24 7.74 54.17 9.70L54.17 9.70L54.17 9.70Q54.10 11.65 54.10 12.78L54.10 12.78L54.10 12.78Q54.10 13.31 54.26 13.43L54.26 13.43L54.26 13.43Q54.42 13.55 55.13 13.64L55.13 13.64L55.13 14.11ZM56.69 4.80L56.69 4.80L56.69 4.80Q56.69 4.63 56.92 4.21L56.92 4.21L56.92 4.21Q57.15 3.79 57.44 3.79L57.44 3.79L57.44 3.79Q57.65 3.79 57.96 4.05L57.96 4.05L57.96 4.05Q58.27 4.31 58.27 4.65L58.27 4.65L58.27 4.65Q58.27 4.98 57.98 5.31L57.98 5.31L57.98 5.31Q57.69 5.64 57.44 5.64L57.44 5.64L57.44 5.64Q57.25 5.64 56.97 5.30L56.97 5.30L56.97 5.30Q56.69 4.96 56.69 4.80ZM59.11 14.11L55.86 14.11L55.86 13.64L55.86 13.64Q56.57 13.58 56.76 13.45L56.76 13.45L56.76 13.45Q56.94 13.31 56.94 12.89L56.94 12.89L56.94 9.98L56.94 9.98Q56.94 8.76 56.88 8.29L56.88 8.29L56.88 8.29Q56.81 7.81 56.67 7.68L56.67 7.68L56.67 7.68Q56.53 7.55 56.14 7.55L56.14 7.55L55.93 7.55L55.90 7.08L55.90 7.08Q56.50 7.03 56.99 6.94L56.99 6.94L56.99 6.94Q57.48 6.86 57.72 6.80L57.72 6.80L57.72 6.80Q57.96 6.75 58.00 6.75L58.00 6.75L58.00 6.75Q58.24 6.75 58.24 6.97L58.24 6.97L58.24 6.97Q58.24 7.14 58.23 7.89L58.23 7.89L58.23 7.89Q58.21 8.64 58.19 10.01L58.19 10.01L58.19 10.01Q58.17 11.38 58.17 13.06L58.17 13.06L58.17 13.06Q58.17 13.34 58.39 13.47L58.39 13.47L58.39 13.47Q58.62 13.61 59.11 13.64L59.11 13.64L59.11 14.11ZM60.00 14.11L59.85 13.75L64.15 7.71L64.15 7.71Q64.15 7.66 62.72 7.66L62.72 7.66L62.65 7.66L62.65 7.66Q62.19 7.66 62.00 7.66L62.00 7.66L62.00 7.66Q61.81 7.66 61.56 7.74L61.56 7.74L61.56 7.74Q61.32 7.83 61.24 7.90L61.24 7.90L61.24 7.90Q61.17 7.98 61.04 8.26L61.04 8.26L61.04 8.26Q60.91 8.54 60.86 8.79L60.86 8.79L60.86 8.79Q60.80 9.04 60.68 9.62L60.68 9.62L60.14 9.62L60.14 9.62Q60.17 8.95 60.20 8.06L60.20 8.06L60.20 8.06Q60.21 7.25 60.26 7.12L60.26 7.12L60.26 7.12Q60.30 6.99 60.49 6.99L60.49 6.99L60.49 6.99Q60.55 6.99 61.09 7.01L61.09 7.01L61.09 7.01Q61.63 7.03 62.66 7.03L62.66 7.03L65.65 6.97L65.65 6.97Q66.05 6.97 66.05 7.27L66.05 7.27L66.05 7.27Q66.05 7.53 65.17 8.60L65.17 8.60L64.81 9.04L64.81 9.04Q63.81 10.29 63.10 11.33L63.10 11.33L63.10 11.33Q62.40 12.38 62.18 12.81L62.18 12.81L62.18 12.81Q61.96 13.24 61.96 13.33L61.96 13.33L61.96 13.33Q61.96 13.40 62.15 13.40L62.15 13.40L62.15 13.40Q63.06 13.40 63.68 13.35L63.68 13.35L63.68 13.35Q64.30 13.30 64.60 13.27L64.60 13.27L64.60 13.27Q64.90 13.23 65.09 13.08L65.09 13.08L65.09 13.08Q65.28 12.94 65.29 12.91L65.29 12.91L65.29 12.91Q65.30 12.89 65.38 12.68L65.38 12.68L65.38 12.68Q65.39 12.64 65.67 11.56L65.67 11.56L66.26 11.61L66.26 11.61Q66.09 13.15 66.09 14.31L66.09 14.31L66.09 14.31Q66.09 14.35 66.10 14.43L66.10 14.43L66.10 14.43Q66.11 14.50 66.11 14.53L66.11 14.53L65.49 14.49L65.49 14.49Q65.49 14.18 65.28 14.12L65.28 14.12L65.28 14.12Q65.06 14.06 64.11 14.06L64.11 14.06L64.11 14.06Q63.28 14.06 60.00 14.11L60.00 14.11ZM67.17 12.42L67.17 12.42L67.17 12.42Q67.17 11.93 67.27 11.55L67.27 11.55L67.27 11.55Q67.37 11.17 67.59 10.92L67.59 10.92L67.59 10.92Q67.82 10.67 68.04 10.50L68.04 10.50L68.04 10.50Q68.26 10.33 68.68 10.21L68.68 10.21L68.68 10.21Q69.09 10.09 69.39 10.03L69.39 10.03L69.39 10.03Q69.69 9.97 70.24 9.86L70.24 9.86L70.24 9.86Q70.78 9.76 71.12 9.69L71.12 9.69L71.12 9.69Q71.12 9.49 71.13 9.20L71.13 9.20L71.13 9.20Q71.13 8.90 71.13 8.85L71.13 8.85L71.13 8.85Q71.13 8.20 70.67 7.92L70.67 7.92L70.67 7.92Q70.21 7.64 69.61 7.64L69.61 7.64L69.61 7.64Q68.91 7.64 68.66 7.97L68.66 7.97L68.66 7.97Q68.40 8.30 68.11 9.38L68.11 9.38L67.54 9.32L67.54 9.32Q67.54 9.28 67.54 9.04L67.54 9.04L67.54 9.04Q67.55 8.79 67.58 8.60L67.58 8.60L67.58 8.60Q67.62 8.41 67.70 8.12L67.70 8.12L67.70 8.12Q67.77 7.83 67.96 7.61L67.96 7.61L67.96 7.61Q68.15 7.39 68.43 7.18L68.43 7.18L68.43 7.18Q68.71 6.97 69.17 6.86L69.17 6.86L69.17 6.86Q69.64 6.75 70.24 6.75L70.24 6.75L70.24 6.75Q70.85 6.75 71.29 6.89L71.29 6.89L71.29 6.89Q71.72 7.03 71.94 7.20L71.94 7.20L71.94 7.20Q72.16 7.38 72.27 7.68L72.27 7.68L72.27 7.68Q72.39 7.98 72.41 8.16L72.41 8.16L72.41 8.16Q72.42 8.34 72.42 8.62L72.42 8.62L72.42 8.62Q72.42 9.69 72.39 10.90L72.39 10.90L72.39 10.90Q72.37 12.11 72.37 12.32L72.37 12.32L72.37 12.32Q72.37 12.67 72.68 13.17L72.68 13.17L72.68 13.17Q73.00 13.66 73.00 13.75L73.00 13.75L73.00 13.75Q73.00 13.82 72.87 13.86L72.87 13.86L72.87 13.86Q71.89 14.18 71.79 14.18L71.79 14.18L71.79 14.18Q71.65 14.18 71.53 13.98L71.53 13.98L71.53 13.98Q71.41 13.78 71.32 13.48L71.32 13.48L71.32 13.48Q71.22 13.19 71.20 13.17L71.20 13.17L71.20 13.17Q70.99 13.31 70.69 13.52L70.69 13.52L70.69 13.52Q70.38 13.73 70.26 13.81L70.26 13.81L70.26 13.81Q70.14 13.89 69.92 14L69.92 14L69.92 14Q69.71 14.11 69.54 14.15L69.54 14.15L69.54 14.15Q69.37 14.20 69.12 14.22L69.12 14.22L69.12 14.22Q68.87 14.25 68.54 14.25L68.54 14.25L68.54 14.25Q67.82 14.25 67.49 13.72L67.49 13.72L67.49 13.72Q67.17 13.19 67.17 12.42ZM68.43 12.28L68.43 12.28L68.43 12.28Q68.43 13.31 69.37 13.31L69.37 13.31L69.37 13.31Q70.20 13.31 71.04 12.61L71.04 12.61L71.04 12.61Q71.13 12.53 71.13 11.42L71.13 11.42L71.13 11.42Q71.13 10.65 71.12 10.23L71.12 10.23L71.12 10.23Q70.87 10.32 70.48 10.44L70.48 10.44L70.48 10.44Q70.10 10.57 69.94 10.63L69.94 10.63L69.94 10.63Q69.78 10.68 69.51 10.77L69.51 10.77L69.51 10.77Q69.24 10.86 69.15 10.92L69.15 10.92L69.15 10.92Q69.06 10.98 68.90 11.06L68.90 11.06L68.90 11.06Q68.74 11.14 68.70 11.22L68.70 11.22L68.70 11.22Q68.66 11.30 68.57 11.40L68.57 11.40L68.57 11.40Q68.49 11.51 68.47 11.64L68.47 11.64L68.47 11.64Q68.46 11.77 68.45 11.92L68.45 11.92L68.45 11.92Q68.43 12.07 68.43 12.28ZM73.72 10.75L73.72 10.75L73.72 10.75Q73.72 9.65 73.91 8.75L73.91 8.75L73.91 8.75Q74.00 8.33 74.40 8.01L74.40 8.01L74.40 8.01Q75.03 7.42 75.54 7.13L75.54 7.13L75.54 7.13Q76.05 6.85 76.29 6.80L76.29 6.80L76.29 6.80Q76.54 6.76 76.94 6.76L76.94 6.76L76.94 6.76Q77.49 6.76 78.08 6.87L78.08 6.87L78.08 6.87Q78.67 6.99 78.85 7.06L78.85 7.06L78.85 7.06Q78.81 7.48 78.81 9.16L78.81 9.16L78.39 9.16L78.39 9.16Q78.25 8.54 78.16 8.26L78.16 8.26L78.16 8.26Q78.09 8.01 77.56 7.87L77.56 7.87L77.56 7.87Q77.03 7.73 76.37 7.73L76.37 7.73L76.37 7.73Q75.54 7.73 75.26 8.26L75.26 8.26L75.26 8.26Q74.97 8.79 74.97 10.30L74.97 10.30L74.97 10.30Q74.97 10.99 75.04 11.47L75.04 11.47L75.04 11.47Q75.11 11.96 75.31 12.38L75.31 12.38L75.31 12.38Q75.50 12.80 75.89 13.01L75.89 13.01L75.89 13.01Q76.29 13.23 76.87 13.23L76.87 13.23L76.87 13.23Q77.29 13.23 77.77 12.98L77.77 12.98L77.77 12.98Q78.25 12.74 78.51 12.49L78.51 12.49L78.79 12.24L79.09 12.52L79.09 12.52Q79.03 12.59 78.76 12.89L78.76 12.89L78.76 12.89Q78.48 13.20 78.37 13.32L78.37 13.32L78.37 13.32Q78.26 13.44 77.99 13.68L77.99 13.68L77.99 13.68Q77.71 13.92 77.51 14.02L77.51 14.02L77.51 14.02Q77.31 14.13 77.01 14.22L77.01 14.22L77.01 14.22Q76.72 14.31 76.41 14.31L76.41 14.31L76.41 14.31Q75.68 14.31 74.90 13.89L74.90 13.89L74.90 13.89Q74.33 13.37 73.92 12.43L73.92 12.43L73.92 12.43Q73.72 11.59 73.72 10.75ZM80.46 4.80L80.46 4.80L80.46 4.80Q80.46 4.63 80.70 4.21L80.70 4.21L80.70 4.21Q80.93 3.79 81.23 3.79L81.23 3.79L81.23 3.79Q81.44 3.79 81.75 4.05L81.75 4.05L81.75 4.05Q82.05 4.31 82.05 4.65L82.05 4.65L82.05 4.65Q82.05 4.98 81.76 5.31L81.76 5.31L81.76 5.31Q81.47 5.64 81.23 5.64L81.23 5.64L81.23 5.64Q81.03 5.64 80.75 5.30L80.75 5.30L80.75 5.30Q80.46 4.96 80.46 4.80ZM79.65 16.94L79.41 16.70L79.41 16.70Q79.49 16.59 79.65 16.41L79.65 16.41L79.65 16.41Q80.02 15.95 80.17 15.69L80.17 15.69L80.17 15.69Q80.32 15.43 80.47 15.04L80.47 15.04L80.47 15.04Q80.63 14.64 80.66 13.81L80.66 13.81L80.66 13.81Q80.70 12.98 80.72 12.00L80.72 12.00L80.72 12.00Q80.74 11.03 80.74 8.96L80.74 8.96L80.74 8.96Q80.74 8.04 80.59 7.78L80.59 7.78L80.59 7.78Q80.44 7.53 79.94 7.53L79.94 7.53L79.73 7.53L79.70 7.07L79.70 7.07Q80.30 7.01 80.80 6.93L80.80 6.93L80.80 6.93Q81.30 6.85 81.53 6.79L81.53 6.79L81.53 6.79Q81.76 6.73 81.80 6.73L81.80 6.73L81.80 6.73Q82.04 6.73 82.04 6.96L82.04 6.96L82.04 6.96Q82.04 8.36 82.04 9.11L82.04 9.11L82.04 9.11Q82.04 9.87 82.01 10.84L82.01 10.84L82.01 10.84Q81.98 11.80 81.97 12.24L81.97 12.24L81.97 12.24Q81.96 12.68 81.87 13.32L81.87 13.32L81.87 13.32Q81.77 13.96 81.72 14.20L81.72 14.20L81.72 14.20Q81.66 14.45 81.49 14.87L81.49 14.87L81.49 14.87Q81.33 15.29 81.20 15.44L81.20 15.44L81.20 15.44Q81.07 15.60 80.79 15.92L80.79 15.92L80.79 15.92Q80.50 16.24 80.28 16.42L80.28 16.42L80.28 16.42Q80.07 16.60 79.65 16.94L79.65 16.94ZM83.57 12.42L83.57 12.42L83.57 12.42Q83.57 11.93 83.66 11.55L83.66 11.55L83.66 11.55Q83.76 11.17 83.99 10.92L83.99 10.92L83.99 10.92Q84.21 10.67 84.43 10.50L84.43 10.50L84.43 10.50Q84.66 10.33 85.07 10.21L85.07 10.21L85.07 10.21Q85.48 10.09 85.79 10.03L85.79 10.03L85.79 10.03Q86.09 9.97 86.63 9.86L86.63 9.86L86.63 9.86Q87.18 9.76 87.51 9.69L87.51 9.69L87.51 9.69Q87.51 9.49 87.52 9.20L87.52 9.20L87.52 9.20Q87.53 8.90 87.53 8.85L87.53 8.85L87.53 8.85Q87.53 8.20 87.07 7.92L87.07 7.92L87.07 7.92Q86.60 7.64 86.00 7.64L86.00 7.64L86.00 7.64Q85.30 7.64 85.05 7.97L85.05 7.97L85.05 7.97Q84.80 8.30 84.50 9.38L84.50 9.38L83.93 9.32L83.93 9.32Q83.93 9.28 83.94 9.04L83.94 9.04L83.94 9.04Q83.94 8.79 83.98 8.60L83.98 8.60L83.98 8.60Q84.01 8.41 84.09 8.12L84.09 8.12L84.09 8.12Q84.17 7.83 84.36 7.61L84.36 7.61L84.36 7.61Q84.55 7.39 84.83 7.18L84.83 7.18L84.83 7.18Q85.11 6.97 85.57 6.86L85.57 6.86L85.57 6.86Q86.03 6.75 86.63 6.75L86.63 6.75L86.63 6.75Q87.25 6.75 87.68 6.89L87.68 6.89L87.68 6.89Q88.12 7.03 88.33 7.20L88.33 7.20L88.33 7.20Q88.55 7.38 88.67 7.68L88.67 7.68L88.67 7.68Q88.79 7.98 88.80 8.16L88.80 8.16L88.80 8.16Q88.82 8.34 88.82 8.62L88.82 8.62L88.82 8.62Q88.82 9.69 88.79 10.90L88.79 10.90L88.79 10.90Q88.76 12.11 88.76 12.32L88.76 12.32L88.76 12.32Q88.76 12.67 89.08 13.17L89.08 13.17L89.08 13.17Q89.39 13.66 89.39 13.75L89.39 13.75L89.39 13.75Q89.39 13.82 89.26 13.86L89.26 13.86L89.26 13.86Q88.28 14.18 88.19 14.18L88.19 14.18L88.19 14.18Q88.05 14.18 87.93 13.98L87.93 13.98L87.93 13.98Q87.81 13.78 87.71 13.48L87.71 13.48L87.71 13.48Q87.61 13.19 87.60 13.17L87.60 13.17L87.60 13.17Q87.39 13.31 87.08 13.52L87.08 13.52L87.08 13.52Q86.77 13.73 86.65 13.81L86.65 13.81L86.65 13.81Q86.53 13.89 86.32 14L86.32 14L86.32 14Q86.10 14.11 85.93 14.15L85.93 14.15L85.93 14.15Q85.76 14.20 85.51 14.22L85.51 14.22L85.51 14.22Q85.26 14.25 84.94 14.25L84.94 14.25L84.94 14.25Q84.21 14.25 83.89 13.72L83.89 13.72L83.89 13.72Q83.57 13.19 83.57 12.42ZM84.83 12.28L84.83 12.28L84.83 12.28Q84.83 13.31 85.76 13.31L85.76 13.31L85.76 13.31Q86.59 13.31 87.43 12.61L87.43 12.61L87.43 12.61Q87.53 12.53 87.53 11.42L87.53 11.42L87.53 11.42Q87.53 10.65 87.51 10.23L87.51 10.23L87.51 10.23Q87.26 10.32 86.88 10.44L86.88 10.44L86.88 10.44Q86.49 10.57 86.33 10.63L86.33 10.63L86.33 10.63Q86.17 10.68 85.90 10.77L85.90 10.77L85.90 10.77Q85.64 10.86 85.55 10.92L85.55 10.92L85.55 10.92Q85.46 10.98 85.30 11.06L85.30 11.06L85.30 11.06Q85.13 11.14 85.09 11.22L85.09 11.22L85.09 11.22Q85.05 11.30 84.97 11.40L84.97 11.40L84.97 11.40Q84.88 11.51 84.87 11.64L84.87 11.64L84.87 11.64Q84.85 11.77 84.84 11.92L84.84 11.92L84.84 11.92Q84.83 12.07 84.83 12.28Z"></path></g><defs data-v-423bf9ae=""><linearGradient data-v-423bf9ae="" gradientTransform="rotate(25)" id="7367cbe3-13c1-4dac-935e-381160d30fb8" x1="0%" y1="0%" x2="100%" y2="0%"><stop data-v-423bf9ae="" offset="0%" style="stop-color: rgb(255, 156, 1); stop-opacity: 1;"></stop><stop data-v-423bf9ae="" offset="100%" style="stop-color: rgb(131, 1, 1); stop-opacity: 1;"></stop></linearGradient></defs><g data-v-423bf9ae="" id="47067422-89e8-4e9d-aae2-1b7eeb097002" transform="matrix(1.098046898841858,0,0,1.098046898841858,-0.7300129532814026,0.7431865334510803)" stroke="none" fill="url(#7367cbe3-13c1-4dac-935e-381160d30fb8)"><path d="M95.267 21.241a3.862 3.862 0 1 0 0-7.724 3.858 3.858 0 0 0-3.752 2.982l-19.04 3.862a6.584 6.584 0 0 0-4.693-3.498l-.3-8.391A4.413 4.413 0 0 0 65.75 0a4.414 4.414 0 0 0-4.414 4.414 4.405 4.405 0 0 0 3.396 4.283l.295 8.255a6.586 6.586 0 0 0-3.929 2.786L45.49 10.299c.073-.296.123-.602.123-.92a3.861 3.861 0 1 0-7.724 0 3.861 3.861 0 0 0 6.032 3.193l16.183 9.789c-.048.319-.08.644-.08.976 0 .963.212 1.875.583 2.699L36.021 50.564a6.556 6.556 0 0 0-4.165-1.486c-1.343 0-2.59.404-3.631 1.094L16.558 38.505a5.345 5.345 0 0 0 .985-3.088 5.379 5.379 0 1 0-5.379 5.379c.813 0 1.577-.194 2.268-.518l11.865 11.866a6.546 6.546 0 0 0-1.025 3.518c0 .497.06.979.164 1.444l-16.813 5.65a3.862 3.862 0 1 0-3.217 5.993 3.85 3.85 0 0 0 3.803-3.28l17.398-5.846a6.569 6.569 0 0 0 4.183 2.527l-.003 9.885a4.408 4.408 0 0 0 .964 8.714 4.414 4.414 0 0 0 4.414-4.413 4.405 4.405 0 0 0-2.62-4.025l.004-10.294a6.592 6.592 0 0 0 4.271-3.58l22.252 4.481c-.033.234-.072.465-.072.707a5.126 5.126 0 0 0 5.125 5.125c.374 0 .736-.045 1.087-.121l3.639 8.99c-1.05.836-1.737 2.107-1.737 3.555 0 .74.193 1.43.508 2.047l-7.385 7.743c-.033-.013-.062-.034-.097-.046a3.86 3.86 0 1 0-2.614 7.266 3.862 3.862 0 0 0 4.941-2.327 3.847 3.847 0 0 0-.189-3.035l7.281-7.637a4.5 4.5 0 0 0 2.105.538c1.195 0 2.273-.47 3.086-1.224l13.693 9.205a3.81 3.81 0 0 0-.228 1.261 3.861 3.861 0 1 0 3.86-3.862c-.668 0-1.289.186-1.838.486l-14.119-9.491a4.551 4.551 0 0 0-4.455-5.478c-.08 0-.153.019-.231.022l-3.754-9.337a5.1 5.1 0 0 0 1.571-3.682 5.126 5.126 0 0 0-5.125-5.125c-1.594 0-3.001.743-3.94 1.886l-22.749-4.652c0-.024.003-.047.003-.071 0-1.056-.254-2.05-.696-2.934l24.501-24.472a6.554 6.554 0 0 0 4.363 1.663 6.55 6.55 0 0 0 3.656-1.11l12.703 12.703a4.388 4.388 0 0 0-.391 1.797 4.414 4.414 0 1 0 4.414-4.414c-.787 0-1.516.223-2.154.584L72.183 26.826a6.548 6.548 0 0 0 1.008-3.49c0-.103-.011-.202-.016-.304L91.9 19.235c.658 1.191 1.911 2.006 3.367 2.006z"></path></g><!----></svg>